<mxfile host="65bd71144e">
    <diagram id="AJymUtVHMTcmiEr9lC-c" name="Page-1">
        <mxGraphModel dx="413" dy="1523" grid="1" gridSize="10" guides="1" tooltips="1" connect="1" arrows="1" fold="1" page="1" pageScale="1" pageWidth="850" pageHeight="1100" math="0" shadow="0">
            <root>
                <mxCell id="0"/>
                <mxCell id="1" parent="0"/>
                <mxCell id="2" value="entity - Immutable Entities" style="swimlane;whiteSpace=wrap;html=1;" vertex="1" parent="1">
                    <mxGeometry x="320" y="220" width="230" height="200" as="geometry"/>
                </mxCell>
                <mxCell id="3" value="&lt;div style=&quot;color: rgb(171, 178, 191); background-color: rgb(35, 39, 46); font-family: Consolas, &amp;quot;Courier New&amp;quot;, monospace; font-size: 14px; line-height: 19px;&quot;&gt;&lt;span style=&quot;color: #7f848e;&quot;&gt;Package entites holds all the entities that are shared across packages&lt;/span&gt;&lt;/div&gt;" style="text;html=1;strokeColor=none;fillColor=none;align=center;verticalAlign=middle;whiteSpace=wrap;rounded=0;" vertex="1" parent="2">
                    <mxGeometry y="20" width="230" height="60" as="geometry"/>
                </mxCell>
                <mxCell id="5" value="Person&lt;br&gt;- Id&lt;br&gt;- Name" style="shape=document;whiteSpace=wrap;html=1;boundedLbl=1;" vertex="1" parent="2">
                    <mxGeometry x="10" y="110" width="90" height="70" as="geometry"/>
                </mxCell>
                <mxCell id="7" value="Item&lt;br&gt;- Id&lt;br&gt;- Description" style="shape=document;whiteSpace=wrap;html=1;boundedLbl=1;" vertex="1" parent="2">
                    <mxGeometry x="110" y="110" width="90" height="70" as="geometry"/>
                </mxCell>
                <mxCell id="9" value="valueobjects" style="swimlane;whiteSpace=wrap;html=1;" vertex="1" parent="1">
                    <mxGeometry x="320" y="10" width="230" height="200" as="geometry"/>
                </mxCell>
                <mxCell id="10" value="&lt;div style=&quot;color: rgb(171, 178, 191); background-color: rgb(35, 39, 46); font-family: Consolas, &amp;quot;Courier New&amp;quot;, monospace; font-size: 14px; line-height: 19px;&quot;&gt;&lt;span style=&quot;color: #7f848e;&quot;&gt;Have no unique identifiers and are immutable (unchangable by other domains)&lt;/span&gt;&lt;/div&gt;" style="text;html=1;strokeColor=none;fillColor=none;align=center;verticalAlign=middle;whiteSpace=wrap;rounded=0;" vertex="1" parent="9">
                    <mxGeometry y="20" width="230" height="80" as="geometry"/>
                </mxCell>
                <mxCell id="12" value="aggregate" style="swimlane;whiteSpace=wrap;html=1;" vertex="1" parent="1">
                    <mxGeometry x="310" y="-20" width="620" height="450" as="geometry"/>
                </mxCell>
                <mxCell id="15" value="Customer&lt;br&gt;- id = Person.Id&lt;br&gt;- transactions" style="shape=document;whiteSpace=wrap;html=1;boundedLbl=1;" vertex="1" parent="12">
                    <mxGeometry x="250" y="230" width="90" height="80" as="geometry"/>
                </mxCell>
                <mxCell id="16" value="Products&lt;br&gt;" style="shape=document;whiteSpace=wrap;html=1;boundedLbl=1;" vertex="1" parent="12">
                    <mxGeometry x="360" y="240" width="90" height="60" as="geometry"/>
                </mxCell>
                <mxCell id="11" value="Transaction&lt;br&gt;- amount" style="shape=document;whiteSpace=wrap;html=1;boundedLbl=1;" vertex="1" parent="12">
                    <mxGeometry x="20" y="140" width="90" height="51" as="geometry"/>
                </mxCell>
                <mxCell id="18" style="edgeStyle=orthogonalEdgeStyle;html=1;startArrow=none;startFill=0;" edge="1" parent="12" source="11" target="15">
                    <mxGeometry relative="1" as="geometry">
                        <Array as="points">
                            <mxPoint x="65" y="210"/>
                            <mxPoint x="295" y="210"/>
                        </Array>
                    </mxGeometry>
                </mxCell>
                <mxCell id="21" value="&lt;div style=&quot;color: rgb(171, 178, 191); background-color: rgb(35, 39, 46); font-family: Consolas, &amp;quot;Courier New&amp;quot;, monospace; font-weight: normal; font-size: 14px; line-height: 19px;&quot;&gt;&lt;div&gt;&lt;span style=&quot;color: #7f848e;&quot;&gt;Fields are lowercase (not acessible directly to other domains) and the aggregate does not decide&amp;nbsp;&lt;/span&gt;&lt;span style=&quot;color: rgb(127, 132, 142);&quot;&gt;what structure each data should have&lt;/span&gt;&lt;/div&gt;&lt;/div&gt;" style="text;whiteSpace=wrap;html=1;" vertex="1" parent="12">
                    <mxGeometry x="250" y="30" width="370" height="60" as="geometry"/>
                </mxCell>
                <mxCell id="17" style="edgeStyle=orthogonalEdgeStyle;html=1;entryX=0.5;entryY=0;entryDx=0;entryDy=0;startArrow=classic;startFill=1;" edge="1" parent="1" source="15" target="5">
                    <mxGeometry relative="1" as="geometry">
                        <Array as="points">
                            <mxPoint x="605" y="310"/>
                            <mxPoint x="375" y="310"/>
                        </Array>
                    </mxGeometry>
                </mxCell>
                <mxCell id="19" style="edgeStyle=orthogonalEdgeStyle;html=1;startArrow=classic;startFill=1;" edge="1" parent="1" source="7" target="16">
                    <mxGeometry relative="1" as="geometry">
                        <Array as="points">
                            <mxPoint x="715" y="360"/>
                        </Array>
                    </mxGeometry>
                </mxCell>
                <mxCell id="20" style="edgeStyle=orthogonalEdgeStyle;html=1;startArrow=classic;startFill=1;" edge="1" parent="1" source="7" target="15">
                    <mxGeometry relative="1" as="geometry">
                        <Array as="points">
                            <mxPoint x="475" y="310"/>
                            <mxPoint x="605" y="310"/>
                        </Array>
                    </mxGeometry>
                </mxCell>
                <mxCell id="23" value="Factory Design Pattern" style="swimlane;horizontal=0;whiteSpace=wrap;html=1;" vertex="1" parent="1">
                    <mxGeometry x="310" y="-220" width="200" height="200" as="geometry"/>
                </mxCell>
            </root>
        </mxGraphModel>
    </diagram>
</mxfile>